<svg xmlns="http://www.w3.org/2000/svg" viewBox="0 0 512 512">
  <defs>
    <radialGradient id="bg" cx="50%" cy="42%" r="70%">
      <stop offset="0" stop-color="#30230c"/>
      <stop offset="0.44" stop-color="#0a0a09"/>
      <stop offset="1" stop-color="#020202"/>
    </radialGradient>
    <linearGradient id="gold" x1="0" y1="0" x2="1" y2="1">
      <stop offset="0" stop-color="#fff1a8"/>
      <stop offset="0.42" stop-color="#d8a840"/>
      <stop offset="1" stop-color="#6b4710"/>
    </linearGradient>
  </defs>
  <rect width="512" height="512" rx="112" fill="url(#bg)"/>
  <circle cx="256" cy="240" r="136" fill="none" stroke="#8a6725" stroke-width="4" opacity=".55"/>
  <circle cx="256" cy="240" r="88" fill="none" stroke="#d1a247" stroke-width="3" opacity=".7"/>
  <path d="M128 102c18 126 66 182 128 148C180 322 110 258 128 102Z" fill="none" stroke="url(#gold)" stroke-width="18" stroke-linecap="round"/>
  <path d="M384 102c-18 126-66 182-128 148 76 72 146 8 128-148Z" fill="none" stroke="url(#gold)" stroke-width="18" stroke-linecap="round"/>
  <path d="M256 178c-20 66-14 132 0 202 14-70 20-136 0-202Z" fill="url(#gold)"/>
  <circle cx="256" cy="240" r="15" fill="#fff1a8"/>
  <text x="256" y="450" text-anchor="middle" font-family="Georgia, serif" font-size="54" font-weight="700" letter-spacing="16" fill="#ead487">AI</text>
</svg>
